<svg width="197" height="75" viewBox="0 0 197 75" fill="none" xmlns="http://www.w3.org/2000/svg">
<path fill-rule="evenodd" clip-rule="evenodd" d="M185.993 30.8654L183.61 27.944C176.528 40.5615 160.229 17.2662 154.708 34.2084L157.074 37.1078C166.139 18.3524 178.108 46.6031 185.993 30.8654ZM158.625 42.3963L160.99 45.293C169.009 25.549 182.023 54.7869 189.907 39.0481L187.528 36.1346C180.443 48.7467 164.145 25.4513 158.625 42.3963ZM162.541 50.5815L164.907 53.4809C171.317 32.5036 185.941 62.9762 193.825 47.2384L191.445 44.3225C184.36 56.9346 168.062 33.6392 162.541 50.5815Z" fill="#FE0079"/>
<path d="M10.73 45.43C10.73 49.1033 12.9533 50.94 17.4 50.94H25.52V39.92H17.4C12.9533 39.92 10.73 41.7567 10.73 45.43ZM25.52 35.86C25.52 33.076 24.7853 31.0267 23.316 29.712C21.8853 28.3973 20.01 27.74 17.69 27.74C15.95 27.74 14.2487 28.0107 12.586 28.552C10.9233 29.0547 9.43467 29.7507 8.12 30.64L6.09 27.16C6.94067 26.58 7.86867 26.0773 8.874 25.652C9.918 25.2267 10.9813 24.8787 12.064 24.608C13.1467 24.2987 14.21 24.0667 15.254 23.912C16.3367 23.7573 17.342 23.68 18.27 23.68C20.7447 23.68 22.9293 23.97 24.824 24.55C26.7187 25.13 28.3233 25.9613 29.638 27.044C30.9527 28.1267 31.9387 29.422 32.596 30.93C33.292 32.3993 33.64 34.0427 33.64 35.86V55H17.4C12.1413 55 8.25533 54.2073 5.742 52.622C3.26733 51.0367 2.03 48.6393 2.03 45.43C2.03 42.2207 3.26733 39.8233 5.742 38.238C8.25533 36.6527 12.1413 35.86 17.4 35.86H25.52ZM53.0428 23.68C55.6335 23.68 58.0115 24.0473 60.1768 24.782C62.3808 25.478 64.2561 26.522 65.8028 27.914C67.3495 29.2673 68.5481 30.9687 69.3988 33.018C70.2881 35.0287 70.7328 37.3293 70.7328 39.92C70.7328 42.5493 70.2881 44.8693 69.3988 46.88C68.5481 48.8907 67.3108 50.592 65.6868 51.984C64.1015 53.3373 62.1875 54.362 59.9448 55.058C57.7021 55.7927 55.2081 56.16 52.4628 56.16C51.2255 56.16 49.9881 56.044 48.7508 55.812C47.5135 55.6187 46.3148 55.348 45.1548 55C44.0335 54.6133 42.9701 54.1493 41.9648 53.608C40.9981 53.0667 40.1475 52.4673 39.4128 51.81L41.7328 48.33C43.3181 49.5287 44.9228 50.4567 46.5468 51.114C48.2095 51.7713 49.9881 52.1 51.8828 52.1C54.7055 52.1 57.0255 51.288 58.8428 49.664C60.6601 48.04 61.7041 45.372 61.9748 41.66H46.9528V37.6H61.9168C61.7235 35.86 61.3561 34.3713 60.8148 33.134C60.3121 31.858 59.6355 30.8333 58.7848 30.06C57.9728 29.248 57.0255 28.668 55.9428 28.32C54.8601 27.9333 53.7001 27.74 52.4628 27.74C50.5681 27.74 48.7895 28.0687 47.1268 28.726C45.5028 29.3833 43.8981 30.3113 42.3128 31.51L39.9928 28.03C40.7275 27.3727 41.5781 26.7733 42.5448 26.232C43.5501 25.6907 44.6135 25.246 45.7348 24.898C46.8948 24.5113 48.0935 24.2213 49.3308 24.028C50.5681 23.796 51.8055 23.68 53.0428 23.68ZM85.5296 28.9V50.94H92.7796C94.0943 50.94 95.2929 50.7467 96.3756 50.36C97.4969 49.9347 98.4443 49.2773 99.2176 48.388C100.03 47.4987 100.648 46.358 101.074 44.966C101.538 43.574 101.77 41.892 101.77 39.92C101.77 37.948 101.538 36.266 101.074 34.874C100.648 33.482 100.03 32.3413 99.2176 31.452C98.4443 30.5627 97.4969 29.9247 96.3756 29.538C95.2929 29.1127 94.0943 28.9 92.7796 28.9H85.5296ZM92.7796 24.84C95.4476 24.84 97.8643 25.188 100.03 25.884C102.234 26.58 104.109 27.5853 105.656 28.9C107.202 30.2147 108.382 31.8 109.194 33.656C110.044 35.512 110.47 37.6 110.47 39.92C110.47 42.24 110.044 44.328 109.194 46.184C108.382 48.04 107.202 49.6253 105.656 50.94C104.109 52.2547 102.234 53.26 100.03 53.956C97.8643 54.652 95.4476 55 92.7796 55H85.5296V65.44H77.4096V24.84H92.7796ZM133.355 52.39C134.592 52.39 135.752 52.158 136.835 51.694C137.917 51.23 138.865 50.5147 139.677 49.548C140.489 48.5427 141.127 47.2473 141.591 45.662C142.093 44.0767 142.345 42.1627 142.345 39.92C142.345 37.6773 142.093 35.7633 141.591 34.178C141.127 32.5927 140.489 31.3167 139.677 30.35C138.865 29.3447 137.917 28.61 136.835 28.146C135.752 27.682 134.592 27.45 133.355 27.45C132.117 27.45 130.957 27.682 129.875 28.146C128.792 28.61 127.845 29.3447 127.033 30.35C126.221 31.3167 125.563 32.5927 125.061 34.178C124.597 35.7633 124.365 37.6773 124.365 39.92C124.365 42.1627 124.597 44.0767 125.061 45.662C125.563 47.2473 126.221 48.5427 127.033 49.548C127.845 50.5147 128.792 51.23 129.875 51.694C130.957 52.158 132.117 52.39 133.355 52.39ZM133.355 23.68C135.945 23.68 138.323 24.0473 140.489 24.782C142.693 25.478 144.568 26.522 146.115 27.914C147.661 29.2673 148.86 30.9687 149.711 33.018C150.6 35.0287 151.045 37.3293 151.045 39.92C151.045 42.5493 150.6 44.8693 149.711 46.88C148.86 48.8907 147.661 50.592 146.115 51.984C144.568 53.3373 142.693 54.362 140.489 55.058C138.323 55.7927 135.945 56.16 133.355 56.16C130.725 56.16 128.328 55.7927 126.163 55.058C123.997 54.362 122.141 53.3373 120.595 51.984C119.048 50.592 117.83 48.8907 116.941 46.88C116.09 44.8693 115.665 42.5493 115.665 39.92C115.665 37.3293 116.09 35.0287 116.941 33.018C117.83 30.9687 119.048 29.2673 120.595 27.914C122.141 26.522 123.997 25.478 126.163 24.782C128.328 24.0473 130.725 23.68 133.355 23.68Z" fill="#7949FF"/>
<path d="M11.008 15.64C10.744 15.832 10.408 15.964 10 16.036C9.592 16.116 9.16 16.156 8.704 16.156C8.168 16.156 7.656 16.072 7.168 15.904C6.688 15.728 6.264 15.464 5.896 15.112C5.528 14.752 5.236 14.3 5.02 13.756C4.804 13.204 4.696 12.552 4.696 11.8C4.696 11.016 4.816 10.348 5.056 9.796C5.296 9.244 5.608 8.796 5.992 8.452C6.376 8.1 6.808 7.844 7.288 7.684C7.768 7.524 8.244 7.444 8.716 7.444C9.244 7.444 9.676 7.472 10.012 7.528C10.348 7.584 10.632 7.656 10.864 7.744L10.6 8.776C10.208 8.592 9.612 8.5 8.812 8.5C8.452 8.5 8.1 8.56 7.756 8.68C7.42 8.792 7.116 8.98 6.844 9.244C6.58 9.5 6.368 9.84 6.208 10.264C6.048 10.68 5.968 11.192 5.968 11.8C5.968 12.344 6.044 12.824 6.196 13.24C6.348 13.648 6.556 13.992 6.82 14.272C7.092 14.544 7.408 14.752 7.768 14.896C8.136 15.032 8.536 15.1 8.968 15.1C9.36 15.1 9.7 15.064 9.988 14.992C10.276 14.92 10.52 14.828 10.72 14.716L11.008 15.64ZM25.4404 8.656H22.6084V16H21.4084V8.656H18.5764V7.6H25.4404V8.656ZM36.5226 11.92L36.8466 12.988H36.9186L37.1706 11.884L38.8746 7.6H40.0986L37.7466 13.144C37.5146 13.68 37.3106 14.136 37.1346 14.512C36.9586 14.88 36.7746 15.18 36.5826 15.412C36.3986 15.644 36.1986 15.812 35.9826 15.916C35.7666 16.02 35.5026 16.072 35.1906 16.072C34.9026 16.072 34.6706 16.048 34.4946 16C34.3266 15.96 34.1626 15.892 34.0026 15.796L34.3506 14.812C34.5186 14.908 34.6746 14.968 34.8186 14.992C34.9706 15.008 35.1106 15.016 35.2386 15.016C35.4706 15.016 35.6666 14.916 35.8266 14.716C35.9946 14.508 36.1426 14.2 36.2706 13.792L32.8506 7.6H34.2306L36.5226 11.92ZM55.2718 17.536H54.4438L54.2398 16H47.8558L47.6638 17.536H46.8358V14.944H47.7718C47.8438 14.856 47.9518 14.656 48.0958 14.344C48.2478 14.024 48.3958 13.572 48.5398 12.988C48.6918 12.396 48.8198 11.656 48.9238 10.768C49.0278 9.88 49.0758 8.824 49.0678 7.6H54.0718V14.944H55.2718V17.536ZM52.8718 14.944V8.656H50.1718C50.1398 9.504 50.0878 10.264 50.0158 10.936C49.9518 11.6 49.8678 12.188 49.7638 12.7C49.6678 13.212 49.5558 13.652 49.4278 14.02C49.3078 14.388 49.1798 14.696 49.0438 14.944H52.8718ZM69.4717 10.444L69.5437 9.52H69.4957L68.9197 10.468L64.6117 16H63.8797V7.6H65.0797V13.192L64.9717 14.104H65.0317L65.6317 13.156L69.9277 7.6H70.6717V16H69.4717V10.444ZM85.3614 16H84.1614V12.424L82.8774 12.688L80.6334 16H79.2414L81.2694 13.072L82.0614 12.544C81.7494 12.488 81.4614 12.4 81.1974 12.28C80.9334 12.152 80.7014 11.988 80.5014 11.788C80.3094 11.588 80.1574 11.352 80.0454 11.08C79.9414 10.808 79.8894 10.492 79.8894 10.132C79.8894 9.644 79.9814 9.232 80.1654 8.896C80.3494 8.56 80.5974 8.288 80.9094 8.08C81.2214 7.872 81.5894 7.724 82.0134 7.636C82.4374 7.54 82.8894 7.492 83.3694 7.492C83.6654 7.492 83.9894 7.508 84.3414 7.54C84.7014 7.564 85.0414 7.612 85.3614 7.684V16ZM83.2974 8.524C83.0174 8.524 82.7494 8.548 82.4934 8.596C82.2374 8.644 82.0094 8.728 81.8094 8.848C81.6174 8.968 81.4614 9.132 81.3414 9.34C81.2214 9.54 81.1614 9.8 81.1614 10.12C81.1614 10.416 81.2174 10.668 81.3294 10.876C81.4414 11.076 81.5934 11.24 81.7854 11.368C81.9854 11.488 82.2134 11.576 82.4694 11.632C82.7334 11.688 83.0134 11.716 83.3094 11.716H84.1614V8.596C84.0494 8.564 83.9294 8.544 83.8014 8.536C83.6734 8.528 83.5054 8.524 83.2974 8.524Z" fill="#5A38BA"/>
<path d="M99.856 70.184H99.268V74H98.068V65.6H99.268V69.464L99.82 69.296L102.844 65.6H104.212L101.188 69.2L100.624 69.608L101.284 70.088L104.62 74H103.108L99.856 70.184ZM113.295 65.684C113.631 65.612 113.995 65.564 114.387 65.54C114.787 65.508 115.179 65.492 115.563 65.492C115.971 65.492 116.383 65.528 116.799 65.6C117.223 65.672 117.607 65.804 117.951 65.996C118.295 66.188 118.575 66.456 118.791 66.8C119.015 67.136 119.127 67.572 119.127 68.108C119.127 68.612 119.027 69.044 118.827 69.404C118.627 69.756 118.359 70.044 118.023 70.268C117.695 70.492 117.315 70.656 116.883 70.76C116.459 70.864 116.019 70.916 115.563 70.916C115.515 70.916 115.439 70.916 115.335 70.916C115.239 70.908 115.135 70.904 115.023 70.904C114.919 70.896 114.815 70.888 114.711 70.88C114.615 70.872 114.543 70.864 114.495 70.856V74H113.295V65.684ZM115.599 66.524C115.383 66.524 115.171 66.528 114.963 66.536C114.763 66.544 114.607 66.564 114.495 66.596V69.824C114.535 69.84 114.599 69.852 114.687 69.86C114.783 69.86 114.879 69.864 114.975 69.872C115.079 69.88 115.175 69.884 115.263 69.884C115.359 69.884 115.431 69.884 115.479 69.884C115.767 69.884 116.051 69.864 116.331 69.824C116.611 69.776 116.863 69.688 117.087 69.56C117.319 69.432 117.503 69.252 117.639 69.02C117.783 68.788 117.855 68.488 117.855 68.12C117.855 67.8 117.787 67.536 117.651 67.328C117.515 67.12 117.339 66.956 117.123 66.836C116.907 66.716 116.663 66.636 116.391 66.596C116.127 66.548 115.863 66.524 115.599 66.524ZM131.521 71.804H128.197L127.309 74H126.133L129.589 65.48H130.213L133.681 74H132.433L131.521 71.804ZM128.557 70.796H131.173L130.201 68.408L129.877 67.124H129.853L129.529 68.432L128.557 70.796ZM147.674 73.64C147.41 73.832 147.074 73.964 146.666 74.036C146.258 74.116 145.826 74.156 145.37 74.156C144.834 74.156 144.322 74.072 143.834 73.904C143.354 73.728 142.93 73.464 142.562 73.112C142.194 72.752 141.902 72.3 141.686 71.756C141.47 71.204 141.362 70.552 141.362 69.8C141.362 69.016 141.482 68.348 141.722 67.796C141.962 67.244 142.274 66.796 142.658 66.452C143.042 66.1 143.474 65.844 143.954 65.684C144.434 65.524 144.91 65.444 145.382 65.444C145.91 65.444 146.342 65.472 146.678 65.528C147.014 65.584 147.298 65.656 147.53 65.744L147.266 66.776C146.874 66.592 146.278 66.5 145.478 66.5C145.118 66.5 144.766 66.56 144.422 66.68C144.086 66.792 143.782 66.98 143.51 67.244C143.246 67.5 143.034 67.84 142.874 68.264C142.714 68.68 142.634 69.192 142.634 69.8C142.634 70.344 142.71 70.824 142.862 71.24C143.014 71.648 143.222 71.992 143.486 72.272C143.758 72.544 144.074 72.752 144.434 72.896C144.802 73.032 145.202 73.1 145.634 73.1C146.026 73.1 146.366 73.064 146.654 72.992C146.942 72.92 147.186 72.828 147.386 72.716L147.674 73.64ZM155.734 69.8C155.734 69.112 155.818 68.5 155.986 67.964C156.162 67.42 156.41 66.964 156.73 66.596C157.058 66.22 157.454 65.936 157.918 65.744C158.39 65.544 158.922 65.444 159.514 65.444C160.146 65.444 160.698 65.552 161.17 65.768C161.65 65.976 162.046 66.272 162.358 66.656C162.678 67.032 162.914 67.488 163.066 68.024C163.226 68.56 163.306 69.152 163.306 69.8C163.306 70.488 163.218 71.104 163.042 71.648C162.874 72.184 162.626 72.64 162.298 73.016C161.97 73.384 161.57 73.668 161.098 73.868C160.634 74.06 160.106 74.156 159.514 74.156C158.874 74.156 158.318 74.052 157.846 73.844C157.374 73.628 156.982 73.332 156.67 72.956C156.358 72.572 156.122 72.112 155.962 71.576C155.81 71.04 155.734 70.448 155.734 69.8ZM157.006 69.8C157.006 70.256 157.054 70.684 157.15 71.084C157.254 71.484 157.406 71.836 157.606 72.14C157.814 72.444 158.074 72.684 158.386 72.86C158.706 73.036 159.082 73.124 159.514 73.124C160.29 73.124 160.902 72.856 161.35 72.32C161.806 71.784 162.034 70.944 162.034 69.8C162.034 69.352 161.982 68.928 161.878 68.528C161.782 68.128 161.63 67.776 161.422 67.472C161.222 67.168 160.962 66.928 160.642 66.752C160.33 66.568 159.954 66.476 159.514 66.476C158.746 66.476 158.134 66.748 157.678 67.292C157.23 67.836 157.006 68.672 157.006 69.8ZM177.721 66.656H174.889V74H173.689V66.656H170.857V65.6H177.721V66.656ZM193.037 65.6H194.237V74H193.037V65.6ZM186.221 65.6H187.421V68.804C187.469 68.796 187.533 68.788 187.613 68.78C187.693 68.764 187.781 68.752 187.877 68.744C187.981 68.736 188.085 68.728 188.189 68.72C188.301 68.712 188.409 68.708 188.513 68.708C188.929 68.708 189.333 68.748 189.725 68.828C190.117 68.908 190.465 69.048 190.769 69.248C191.073 69.44 191.313 69.7 191.489 70.028C191.673 70.356 191.765 70.768 191.765 71.264C191.765 71.744 191.677 72.164 191.501 72.524C191.333 72.884 191.097 73.18 190.793 73.412C190.489 73.644 190.125 73.82 189.701 73.94C189.277 74.052 188.809 74.108 188.297 74.108C188.177 74.108 188.033 74.104 187.865 74.096C187.697 74.096 187.517 74.088 187.325 74.072C187.141 74.056 186.953 74.036 186.761 74.012C186.569 73.988 186.389 73.956 186.221 73.916V65.6ZM188.393 73.076C188.689 73.076 188.965 73.04 189.221 72.968C189.477 72.896 189.697 72.788 189.881 72.644C190.073 72.5 190.221 72.32 190.325 72.104C190.437 71.888 190.493 71.636 190.493 71.348C190.493 71.028 190.433 70.764 190.313 70.556C190.193 70.348 190.033 70.184 189.833 70.064C189.641 69.944 189.413 69.86 189.149 69.812C188.893 69.764 188.621 69.74 188.333 69.74C188.181 69.74 188.013 69.752 187.829 69.776C187.645 69.8 187.509 69.824 187.421 69.848V73.004C187.533 73.036 187.669 73.056 187.829 73.064C187.997 73.072 188.185 73.076 188.393 73.076Z" fill="#5A38BA"/>
</svg>
